<svg xmlns="http://www.w3.org/2000/svg" xmlns:xlink="http://www.w3.org/1999/xlink" viewBox="0 0 512 512">
  <defs>
    <linearGradient id="holo" x1="0" y1="0" x2="1" y2="1">
      <stop offset="0" stop-color="#ffb3e6"/><stop offset=".22" stop-color="#c9b6ff"/>
      <stop offset=".45" stop-color="#9ff0ff"/><stop offset=".68" stop-color="#c8ffb0"/>
      <stop offset=".85" stop-color="#fff0a8"/><stop offset="1" stop-color="#ffb3e6"/>
    </linearGradient>
    <linearGradient id="sheen" x1="0" y1="0" x2="1" y2=".8">
      <stop offset="0" stop-color="#ff40a0" stop-opacity=".55"/><stop offset=".35" stop-color="#7a5cff" stop-opacity=".45"/>
      <stop offset=".6" stop-color="#22d3ee" stop-opacity=".45"/><stop offset=".85" stop-color="#84ff6a" stop-opacity=".35"/>
      <stop offset="1" stop-color="#ff40a0" stop-opacity=".5"/>
    </linearGradient>
    <linearGradient id="shine" x1="0" y1="0" x2="1" y2="1">
      <stop offset=".30" stop-color="#fff" stop-opacity="0"/><stop offset=".40" stop-color="#fff" stop-opacity=".55"/>
      <stop offset=".46" stop-color="#fff" stop-opacity="0"/><stop offset=".56" stop-color="#fff" stop-opacity="0"/>
      <stop offset=".60" stop-color="#fff" stop-opacity=".3"/><stop offset=".64" stop-color="#fff" stop-opacity="0"/>
    </linearGradient>
    <linearGradient id="back" x1="0" y1="0" x2="1" y2="1">
      <stop offset="0" stop-color="#f4f4f8"/><stop offset=".6" stop-color="#dcdce6"/><stop offset="1" stop-color="#b9b9c8"/>
    </linearGradient>
    <linearGradient id="belly" x1="0" y1="0" x2="0" y2="1">
      <stop offset="0" stop-color="#ffffff"/><stop offset="1" stop-color="#eae6f5"/>
    </linearGradient>
    <linearGradient id="beak" x1="0" y1="0" x2="0" y2="1"><stop offset="0" stop-color="#ffd23f"/><stop offset="1" stop-color="#ff9f1c"/></linearGradient>
    <filter id="drop" x="-20%" y="-20%" width="140%" height="140%"><feDropShadow dx="0" dy="6" stdDeviation="8" flood-color="#1a1030" flood-opacity=".35"/></filter>
    <filter id="flapshadow" x="-30%" y="-30%" width="160%" height="160%"><feOffset dx="0" dy="0"/><feGaussianBlur stdDeviation="6"/></filter>
    <clipPath id="keep"><path d="M -1288.5182257425497 1858.8756366162715 L 1718.5182257425497 -778.8756366162715 L -2000 -2000 Z"/></clipPath>
    <clipPath id="cut"><path d="M -1288.5182257425497 1858.8756366162715 L 1718.5182257425497 -778.8756366162715 L 2000 2000 Z"/></clipPath>
  </defs>
  <g clip-path="url(#keep)">
    <g filter="url(#drop)">
  <ellipse cx="150" cy="300" rx="34" ry="92" transform="rotate(22 150 300)" fill="url(#holo)" stroke="url(#holo)" stroke-width="40" stroke-linejoin="round"/>
  <ellipse cx="362" cy="300" rx="34" ry="92" transform="rotate(-22 362 300)" fill="url(#holo)" stroke="url(#holo)" stroke-width="40" stroke-linejoin="round"/>
  <ellipse cx="256" cy="298" rx="118" ry="148" fill="url(#holo)" stroke="url(#holo)" stroke-width="40" stroke-linejoin="round"/>
  <circle cx="256" cy="168" r="86" fill="url(#holo)" stroke="url(#holo)" stroke-width="40" stroke-linejoin="round"/>
  <ellipse cx="192" cy="446" rx="64" ry="26" transform="rotate(-6 192 446)" fill="url(#holo)" stroke="url(#holo)" stroke-width="40" stroke-linejoin="round"/>
  <ellipse cx="320" cy="446" rx="64" ry="26" transform="rotate(6 320 446)" fill="url(#holo)" stroke="url(#holo)" stroke-width="40" stroke-linejoin="round"/></g>
    
  <ellipse cx="150" cy="300" rx="34" ry="92" transform="rotate(22 150 300)" fill="#191826"/>
  <ellipse cx="362" cy="300" rx="34" ry="92" transform="rotate(-22 362 300)" fill="#191826"/>
  <ellipse cx="256" cy="298" rx="118" ry="148" fill="#191826"/>
  <circle cx="256" cy="168" r="86" fill="#191826"/>
    <g style="mix-blend-mode:screen">
  <ellipse cx="150" cy="300" rx="34" ry="92" transform="rotate(22 150 300)" fill="url(#sheen)"/>
  <ellipse cx="362" cy="300" rx="34" ry="92" transform="rotate(-22 362 300)" fill="url(#sheen)"/>
  <ellipse cx="256" cy="298" rx="118" ry="148" fill="url(#sheen)"/>
  <circle cx="256" cy="168" r="86" fill="url(#sheen)"/></g>
    
  <ellipse cx="256" cy="322" rx="84" ry="116" fill="url(#belly)"/>
  <ellipse cx="229" cy="160" rx="28" ry="38" fill="#ffffff"/>
  <ellipse cx="283" cy="160" rx="28" ry="38" fill="#ffffff"/>
  <ellipse cx="236" cy="168" rx="11" ry="16" fill="#191826"/>
  <ellipse cx="276" cy="168" rx="11" ry="16" fill="#191826"/>
  <circle cx="240" cy="161" r="4" fill="#ffffff"/>
  <circle cx="280" cy="161" r="4" fill="#ffffff"/>
  <ellipse cx="256" cy="219" rx="34" ry="13" fill="#e8890c"/>
  <ellipse cx="256" cy="206" rx="44" ry="17" fill="url(#beak)"/>
  <ellipse cx="192" cy="446" rx="64" ry="26" transform="rotate(-6 192 446)" fill="url(#beak)"/>
  <ellipse cx="320" cy="446" rx="64" ry="26" transform="rotate(6 320 446)" fill="url(#beak)"/>
    <g opacity=".75">
  <ellipse cx="150" cy="300" rx="34" ry="92" transform="rotate(22 150 300)" fill="url(#shine)" stroke="url(#shine)" stroke-width="40" stroke-linejoin="round"/>
  <ellipse cx="362" cy="300" rx="34" ry="92" transform="rotate(-22 362 300)" fill="url(#shine)" stroke="url(#shine)" stroke-width="40" stroke-linejoin="round"/>
  <ellipse cx="256" cy="298" rx="118" ry="148" fill="url(#shine)" stroke="url(#shine)" stroke-width="40" stroke-linejoin="round"/>
  <circle cx="256" cy="168" r="86" fill="url(#shine)" stroke="url(#shine)" stroke-width="40" stroke-linejoin="round"/>
  <ellipse cx="192" cy="446" rx="64" ry="26" transform="rotate(-6 192 446)" fill="url(#shine)" stroke="url(#shine)" stroke-width="40" stroke-linejoin="round"/>
  <ellipse cx="320" cy="446" rx="64" ry="26" transform="rotate(6 320 446)" fill="url(#shine)" stroke="url(#shine)" stroke-width="40" stroke-linejoin="round"/></g>
  </g>
  <!-- the peeled-up corner: the back of the sticker, folded over -->
  <g transform="matrix(0.130284 -0.991477 -0.991477 -0.130284 722.387 823.521)">
    <g clip-path="url(#cut)" filter="url(#flapshadow)" opacity=".5">
  <ellipse cx="150" cy="300" rx="34" ry="92" transform="rotate(22 150 300)" fill="#1a1030" stroke="#1a1030" stroke-width="40" stroke-linejoin="round"/>
  <ellipse cx="362" cy="300" rx="34" ry="92" transform="rotate(-22 362 300)" fill="#1a1030" stroke="#1a1030" stroke-width="40" stroke-linejoin="round"/>
  <ellipse cx="256" cy="298" rx="118" ry="148" fill="#1a1030" stroke="#1a1030" stroke-width="40" stroke-linejoin="round"/>
  <circle cx="256" cy="168" r="86" fill="#1a1030" stroke="#1a1030" stroke-width="40" stroke-linejoin="round"/>
  <ellipse cx="192" cy="446" rx="64" ry="26" transform="rotate(-6 192 446)" fill="#1a1030" stroke="#1a1030" stroke-width="40" stroke-linejoin="round"/>
  <ellipse cx="320" cy="446" rx="64" ry="26" transform="rotate(6 320 446)" fill="#1a1030" stroke="#1a1030" stroke-width="40" stroke-linejoin="round"/></g>
    <g clip-path="url(#cut)">
  <ellipse cx="150" cy="300" rx="34" ry="92" transform="rotate(22 150 300)" fill="url(#back)" stroke="url(#back)" stroke-width="40" stroke-linejoin="round"/>
  <ellipse cx="362" cy="300" rx="34" ry="92" transform="rotate(-22 362 300)" fill="url(#back)" stroke="url(#back)" stroke-width="40" stroke-linejoin="round"/>
  <ellipse cx="256" cy="298" rx="118" ry="148" fill="url(#back)" stroke="url(#back)" stroke-width="40" stroke-linejoin="round"/>
  <circle cx="256" cy="168" r="86" fill="url(#back)" stroke="url(#back)" stroke-width="40" stroke-linejoin="round"/>
  <ellipse cx="192" cy="446" rx="64" ry="26" transform="rotate(-6 192 446)" fill="url(#back)" stroke="url(#back)" stroke-width="40" stroke-linejoin="round"/>
  <ellipse cx="320" cy="446" rx="64" ry="26" transform="rotate(6 320 446)" fill="url(#back)" stroke="url(#back)" stroke-width="40" stroke-linejoin="round"/></g>
  </g>
</svg>
